# xmcd CD database file
#
# Track frame offsets:
#	150
#	20050
#	41119
#	56051
#	81233
#	101430
#	118161
#	139773
#	154719
#	172562
#	182793
#	204209
#	223073
#	242513
#	261243
#
# Disc length: 3736 seconds
#
# Revision: 0
# Processed by: cddbd v1.5.1PL0 Copyright (c) Steve Scherf et al.
# Submitted via: CDex 1.51
#
DISCID=ce0e960f
DTITLE=Sac à Pulses (www.sacapulses.com) - C'est Pas Ma Faute
DYEAR=1999
DGENRE=Jazz
TTITLE0=Oh, But On The Third Day (Happy Feet Blues)
TTITLE1=Skeleton In The Closet
TTITLE2=Shine
TTITLE3=I'll Be A Friend With Pleasure
TTITLE4=Baby Elephant Walk
TTITLE5=Is It True What They Say About Dixie
TTITLE6=Du Côté du Chez Swing (Jellyroll)
TTITLE7=Delta Bound
TTITLE8=Mardi Gras In New Orleans
TTITLE9=Some Of These Days
TTITLE10=Alexander's Ragtime Band
TTITLE11=I'm Coming Virginia
TTITLE12=Panama
TTITLE13=Southern Sunsets
TTITLE14=C'est Pas Ma Faute (It's Not My Fault)
EXTD=YEAR: 1999
EXTT0=
EXTT1=
EXTT2=
EXTT3=
EXTT4=
EXTT5=
EXTT6=
EXTT7=
EXTT8=
EXTT9=
EXTT10=
EXTT11=
EXTT12=
EXTT13=
EXTT14=
PLAYORDER=
